<svg viewBox="0 0 32 32" xmlns="http://www.w3.org/2000/svg"><path d="m16 18h-10a2 2 0 0 1 -2-2v-10a2 2 0 0 1 2-2h10a2 2 0 0 1 2 2v10a2 2 0 0 1 -2 2zm-10-12v10h10v-10z"/><path d="m26 12v4h-4v-4zm0-2h-4a2 2 0 0 0 -2 2v4a2 2 0 0 0 2 2h4a2 2 0 0 0 2-2v-4a2 2 0 0 0 -2-2z"/><path d="m26 22v4h-4v-4zm0-2h-4a2 2 0 0 0 -2 2v4a2 2 0 0 0 2 2h4a2 2 0 0 0 2-2v-4a2 2 0 0 0 -2-2z"/><path d="m16 22v4h-4v-4zm0-2h-4a2 2 0 0 0 -2 2v4a2 2 0 0 0 2 2h4a2 2 0 0 0 2-2v-4a2 2 0 0 0 -2-2z"/><path d="m0 0h32v32h-32z" fill="none"/></svg>