<svg fill="none" height="24" viewBox="0 0 24 24" width="24" xmlns="http://www.w3.org/2000/svg"><g stroke="#141b34" stroke-linecap="round" stroke-linejoin="round" stroke-width="1.5"><path d="m12.8824 12c1.1695 0 2.1176.8954 2.1176 2s-.9481 2-2.1176 2h-2.2824c-.75425 0-1.13137 0-1.36569-.2343-.23431-.2343-.23431-.6115-.23431-1.3657v-2.4m3.8824 0c1.1695 0 2.1176-.8954 2.1176-2 0-1.10457-.9481-2-2.1176-2h-2.2824c-.75425 0-1.13137 0-1.36569.23431-.23431.23432-.23431.61144-.23431 1.36569v2.4m3.8824 0h-3.8824"/><path d="m22 12c-1.1046 0-2-.8954-2-2v-2c0-3.30933-.6907-4-4-4h-8c-3.30933 0-4 .69067-4 4v2c0 1.1046-.89543 2-2 2"/><path d="m2 12c1.10457 0 2 .8954 2 2v2c0 3.3093.69067 4 4 4h8c3.3093 0 4-.6907 4-4v-2c0-1.1046.8954-2 2-2"/></g></svg>