<svg enable-background="new 0 0 76.00 76.00" height="76" viewBox="0 0 76 76" width="76" xmlns="http://www.w3.org/2000/svg"><path d="m48.3911 32.2789c.6672 1.1653 1.4483 2.6685 1.4483 4.8344 0 1.5031-.4476 3.3904-1.3343 5.6704l-1.7522 5.8435-6.3374-18.8478c1.0597-.0591 2.0055-.1689 2.0055-.1689.9458-.1097.8318-1.4989-.1098-1.444 0 0-2.8415.2238-4.6739.2238-1.7235 0-4.6174-.2238-4.6174-.2238-.9458-.0549-1.0551 1.3891-.1123 1.444 0 0 .8959.1098 1.8417.1689l2.7275 7.4859-3.8345 11.5055-6.3869-18.9914c1.0576-.0591 2.0085-.1689 2.0085-.1689.9457-.1097.8305-1.4989-.1124-1.444 0 0-2.8385.2238-4.6747.2238-.3281 0-.7149-.0084-1.1274-.0211 3.1363-4.7626 8.5263-7.9039 14.651-7.9039 4.5641 0 8.723 1.7437 11.839 4.6022-.0718-.0043-.1478-.0127-.2238-.0127-1.7269 0-2.9471 1.4989-2.9471 3.1117 0 1.444.836 2.6684 1.7226 4.1124zm3.7831 5.3918c.9965-2.5038 1.3342-4.5009 1.3342-6.2826 0-.6418-.0464-1.2413-.1224-1.8029 1.368 2.4995 2.1491 5.3663 2.1491 8.4148 0 6.4683-3.5087 12.1176-8.7188 15.1534m-8.8159 2.3813c-1.7227 0-3.3837-.2491-4.9547-.7136l5.2629-15.2842 5.3917 14.7649c.0338.0844.076.1647.1225.2364-1.8198.646-3.7831.9965-5.8224.9965zm-17.5356-17.5347c0-2.5418.5476-4.9568 1.5192-7.1397l8.3641 22.918c-5.8481-2.8373-9.8833-8.8371-9.8833-15.7783zm-1.4646 0c0 10.4921 8.5055 18.9998 19.0002 18.9998 10.4921 0 18.9998-8.5077 18.9998-18.9998s-8.5077-18.9998-18.9998-18.9998c-10.4947 0-19.0002 8.5077-19.0002 18.9998z" stroke-linejoin="round" stroke-width=".2"/></svg>